<svg width="332" height="114" viewBox="0 0 332 114" fill="none" xmlns="http://www.w3.org/2000/svg">
<path d="M8.80342 113.389C7.37829 113.389 6.18636 113.168 5.22764 112.728C4.28187 112.274 3.53044 111.62 2.97334 110.765C2.4292 109.897 2.04053 108.848 1.80733 107.617C1.57412 106.373 1.45752 104.961 1.45752 103.38V100.329H6.39366V103.769C6.39366 105.609 6.54912 106.93 6.86006 107.733C7.171 108.537 7.7864 108.938 8.70625 108.938C9.32813 108.938 9.79453 108.796 10.1055 108.511C10.4294 108.213 10.6431 107.746 10.7468 107.112C10.8634 106.464 10.9217 105.622 10.9217 104.585C10.9217 103.303 10.6496 102.13 10.1055 101.068C9.57429 100.005 8.76455 98.9042 7.67627 97.7641L5.14991 95.16C4.4503 94.4344 3.81547 93.6636 3.24541 92.8474C2.68832 92.0311 2.24134 91.1242 1.9045 90.1267C1.5806 89.1161 1.41866 87.989 1.41866 86.7452C1.41866 84.9444 1.6389 83.4221 2.0794 82.1783C2.51989 80.9346 3.26485 79.9953 4.31426 79.3604C5.36367 78.7127 6.80176 78.3888 8.62852 78.3888C10.0018 78.3888 11.129 78.6025 12.01 79.0301C12.9039 79.4447 13.597 80.0601 14.0894 80.8763C14.5946 81.6795 14.9509 82.6642 15.1582 83.8302C15.3655 84.9832 15.4691 86.3047 15.4691 87.7946V89.9129H10.669V87.4642C10.669 86.4278 10.6107 85.5662 10.4941 84.8796C10.3905 84.1929 10.1897 83.6812 9.8917 83.3443C9.59372 82.9945 9.1597 82.8196 8.58965 82.8196C8.04551 82.8196 7.60502 82.9427 7.26817 83.1889C6.93132 83.4221 6.68516 83.7913 6.52969 84.2966C6.38718 84.7889 6.31592 85.4302 6.31592 86.2205C6.31592 86.9331 6.40661 87.5485 6.58799 88.0667C6.76937 88.5849 7.04792 89.0837 7.42364 89.5631C7.79935 90.0424 8.26576 90.5801 8.82285 91.1761L11.6407 94.2271C12.9881 95.6782 14.0375 97.1875 14.789 98.7552C15.5404 100.323 15.9161 102.072 15.9161 104.002C15.9161 106.049 15.6959 107.772 15.2554 109.172C14.8149 110.558 14.0764 111.607 13.0399 112.32C12.0035 113.032 10.5913 113.389 8.80342 113.389Z" fill="black"/>
<path d="M19.5891 113V78.7969H28.1981C29.986 78.7969 31.3205 79.1467 32.2015 79.8463C33.0825 80.5459 33.659 81.5694 33.9311 82.9168C34.2161 84.2642 34.3586 85.9096 34.3586 87.8529C34.3586 89.8611 34.1513 91.4417 33.7367 92.5947C33.3351 93.7348 32.5059 94.4992 31.2492 94.8879C31.8452 94.9915 32.344 95.2377 32.7456 95.6264C33.1472 96.0021 33.4711 96.5592 33.7173 97.2977C33.9634 98.0232 34.1384 98.9625 34.242 100.116C34.3586 101.256 34.4169 102.655 34.4169 104.313C34.4169 104.443 34.4169 104.805 34.4169 105.401C34.4169 105.997 34.4169 106.704 34.4169 107.52C34.4299 108.323 34.4428 109.126 34.4558 109.929C34.4687 110.733 34.4882 111.419 34.5141 111.989C34.54 112.559 34.5724 112.896 34.6112 113H29.403C29.3642 112.935 29.3318 112.605 29.3059 112.009C29.2929 111.4 29.2735 110.629 29.2476 109.696C29.2346 108.763 29.2217 107.759 29.2087 106.684C29.2087 105.609 29.2087 104.553 29.2087 103.516C29.2087 102.467 29.2087 101.541 29.2087 100.737C29.2087 99.7139 29.131 98.943 28.9755 98.4248C28.833 97.8936 28.5609 97.5244 28.1593 97.3171C27.7706 97.1098 27.207 96.9867 26.4686 96.9478L24.7973 96.8507V113H19.5891ZM24.8167 92.8085H26.8961C27.5309 92.8085 28.0103 92.666 28.3342 92.381C28.671 92.0959 28.8978 91.5712 29.0144 90.8068C29.1439 90.0424 29.2087 88.9412 29.2087 87.5031V87.2894C29.2087 86.0845 29.1504 85.1581 29.0338 84.5103C28.9172 83.8626 28.671 83.4156 28.2953 83.1694C27.9326 82.9233 27.3625 82.8002 26.5852 82.8002H24.8167V92.8085Z" fill="black"/>
<path d="M38.8672 113V78.7969H50.333V83.286H44.0754V93.236H50.0221V97.628H44.0754V108.511H50.5662V113H38.8672Z" fill="black"/>
<path d="M54.4141 113V78.7969H65.8799V83.286H59.6223V93.236H65.5689V97.628H59.6223V108.511H66.1131V113H54.4141Z" fill="black"/>
<path d="M77.1125 113V78.7969H82.3207V108.569H88.9087V113H77.1125Z" fill="black"/>
<path d="M89.7055 113L94.5833 78.7969H101.463L106.652 113H101.793L100.977 106.898H95.4578L94.7193 113H89.7055ZM95.9631 102.72H100.433L98.1396 85.5403H98.0619L95.9631 102.72Z" fill="black"/>
<path d="M107.992 113L113.259 94.6547L108.012 78.7969H112.404L115.805 88.9606L118.545 78.7969H123.423L118.253 96.3065L123.831 113H119.322L115.844 102.486L113.026 113H107.992Z" fill="black"/>
<path d="M127.212 113V78.7969H133.684L138.542 103.788L143.109 78.7969H149.619V113H144.975V100.252L145.169 88.5525L140.563 112.845H136.424L131.624 88.5525L131.818 100.252V113H127.212Z" fill="black"/>
<path d="M154.886 113V78.7969H160.094V113H154.886Z" fill="black"/>
<path d="M178.731 113.389C177.306 113.389 176.114 113.168 175.155 112.728C174.209 112.274 173.458 111.62 172.901 110.765C172.357 109.897 171.968 108.848 171.735 107.617C171.501 106.373 171.385 104.961 171.385 103.38V100.329H176.321V103.769C176.321 105.609 176.476 106.93 176.787 107.733C177.098 108.537 177.714 108.938 178.634 108.938C179.255 108.938 179.722 108.796 180.033 108.511C180.357 108.213 180.57 107.746 180.674 107.112C180.791 106.464 180.849 105.622 180.849 104.585C180.849 103.303 180.577 102.13 180.033 101.068C179.502 100.005 178.692 98.9042 177.604 97.7641L175.077 95.16C174.378 94.4344 173.743 93.6636 173.173 92.8474C172.616 92.0311 172.169 91.1242 171.832 90.1267C171.508 89.1161 171.346 87.989 171.346 86.7452C171.346 84.9444 171.566 83.4221 172.007 82.1783C172.447 80.9346 173.192 79.9953 174.242 79.3604C175.291 78.7127 176.729 78.3888 178.556 78.3888C179.929 78.3888 181.056 78.6025 181.937 79.0301C182.831 79.4447 183.524 80.0601 184.017 80.8763C184.522 81.6795 184.878 82.6642 185.086 83.8302C185.293 84.9832 185.396 86.3047 185.396 87.7946V89.9129H180.596V87.4642C180.596 86.4278 180.538 85.5662 180.421 84.8796C180.318 84.1929 180.117 83.6812 179.819 83.3443C179.521 82.9945 179.087 82.8196 178.517 82.8196C177.973 82.8196 177.532 82.9427 177.196 83.1889C176.859 83.4221 176.612 83.7913 176.457 84.2966C176.315 84.7889 176.243 85.4302 176.243 86.2205C176.243 86.9331 176.334 87.5485 176.515 88.0667C176.697 88.5849 176.975 89.0837 177.351 89.5631C177.727 90.0424 178.193 90.5801 178.75 91.1761L181.568 94.2271C182.915 95.6782 183.965 97.1875 184.716 98.7552C185.468 100.323 185.843 102.072 185.843 104.002C185.843 106.049 185.623 107.772 185.183 109.172C184.742 110.558 184.004 111.607 182.967 112.32C181.931 113.032 180.519 113.389 178.731 113.389Z" fill="black"/>
<path d="M189.516 113V78.7969H197.368C198.728 78.7969 199.855 79.0042 200.749 79.4187C201.656 79.8333 202.368 80.4487 202.887 81.2649C203.405 82.0811 203.774 83.0917 203.994 84.2966C204.215 85.4885 204.325 86.8683 204.325 88.4359V89.155C204.325 91.3574 204.13 93.236 203.742 94.7907C203.366 96.3324 202.686 97.5049 201.701 98.3082C200.717 99.1115 199.33 99.5131 197.542 99.5131H194.725V113H189.516ZM194.725 95.2183H196.512C197.277 95.2183 197.847 95.0239 198.223 94.6352C198.598 94.2466 198.845 93.6053 198.961 92.7113C199.091 91.8044 199.155 90.5995 199.155 89.0967V88.4359C199.143 86.5833 198.981 85.184 198.67 84.2383C198.359 83.2795 197.653 82.8002 196.551 82.8002H194.725V95.2183Z" fill="black"/>
<path d="M215.169 113.389C213.394 113.389 211.949 113.058 210.835 112.398C209.721 111.724 208.905 110.713 208.386 109.366C207.868 108.006 207.609 106.289 207.609 104.216V78.7969H212.817V104.119C212.817 105.078 212.856 105.92 212.934 106.645C213.025 107.371 213.232 107.934 213.556 108.336C213.88 108.738 214.411 108.938 215.149 108.938C215.888 108.938 216.419 108.744 216.743 108.355C217.08 107.954 217.287 107.39 217.365 106.665C217.442 105.939 217.481 105.091 217.481 104.119V78.7969H222.69V104.216C222.69 106.289 222.43 108.006 221.912 109.366C221.407 110.713 220.597 111.724 219.483 112.398C218.382 113.058 216.944 113.389 215.169 113.389Z" fill="black"/>
<path d="M227.567 113V78.7969H231.648L238.897 99.3187L238.528 89.9906V78.7969H243.211V113H239.519L232.076 91.7591L232.367 100.737V113H227.567Z" fill="black"/>
<path d="M255.513 113V78.7969H263.364C264.724 78.7969 265.852 79.0042 266.745 79.4187C267.652 79.8333 268.365 80.4487 268.883 81.2649C269.401 82.0811 269.771 83.0917 269.991 84.2966C270.211 85.4885 270.321 86.8683 270.321 88.4359V89.155C270.321 91.3574 270.127 93.236 269.738 94.7907C269.363 96.3324 268.682 97.5049 267.698 98.3082C266.713 99.1115 265.327 99.5131 263.539 99.5131H260.721V113H255.513ZM260.721 95.2183H262.509C263.273 95.2183 263.843 95.0239 264.219 94.6352C264.595 94.2466 264.841 93.6053 264.958 92.7113C265.087 91.8044 265.152 90.5995 265.152 89.0967V88.4359C265.139 86.5833 264.977 85.184 264.666 84.2383C264.355 83.2795 263.649 82.8002 262.548 82.8002H260.721V95.2183Z" fill="black"/>
<path d="M273.975 113V78.7969H279.183V113H273.975Z" fill="black"/>
<path d="M284.43 113V78.7969H292.281C293.642 78.7969 294.769 79.0042 295.663 79.4187C296.57 79.8333 297.282 80.4487 297.8 81.2649C298.319 82.0811 298.688 83.0917 298.908 84.2966C299.128 85.4885 299.238 86.8683 299.238 88.4359V89.155C299.238 91.3574 299.044 93.236 298.655 94.7907C298.28 96.3324 297.6 97.5049 296.615 98.3082C295.63 99.1115 294.244 99.5131 292.456 99.5131H289.638V113H284.43ZM289.638 95.2183H291.426C292.191 95.2183 292.761 95.0239 293.136 94.6352C293.512 94.2466 293.758 93.6053 293.875 92.7113C294.004 91.8044 294.069 90.5995 294.069 89.0967V88.4359C294.056 86.5833 293.894 85.184 293.583 84.2383C293.272 83.2795 292.566 82.8002 291.465 82.8002H289.638V95.2183Z" fill="black"/>
<path d="M302.775 113V78.7969H314.241V83.286H307.984V93.236H313.93V97.628H307.984V108.511H314.474V113H302.775Z" fill="black"/>
<path d="M324.56 113.389C323.135 113.389 321.943 113.168 320.985 112.728C320.039 112.274 319.287 111.62 318.73 110.765C318.186 109.897 317.798 108.848 317.564 107.617C317.331 106.373 317.215 104.961 317.215 103.38V100.329H322.151V103.769C322.151 105.609 322.306 106.93 322.617 107.733C322.928 108.537 323.543 108.938 324.463 108.938C325.085 108.938 325.552 108.796 325.862 108.511C326.186 108.213 326.4 107.746 326.504 107.112C326.62 106.464 326.679 105.622 326.679 104.585C326.679 103.303 326.407 102.13 325.862 101.068C325.331 100.005 324.522 98.9042 323.433 97.7641L320.907 95.16C320.207 94.4344 319.572 93.6636 319.002 92.8474C318.445 92.0311 317.998 91.1242 317.661 90.1267C317.338 89.1161 317.176 87.989 317.176 86.7452C317.176 84.9444 317.396 83.4221 317.836 82.1783C318.277 80.9346 319.022 79.9953 320.071 79.3604C321.121 78.7127 322.559 78.3888 324.386 78.3888C325.759 78.3888 326.886 78.6025 327.767 79.0301C328.661 79.4447 329.354 80.0601 329.846 80.8763C330.352 81.6795 330.708 82.6642 330.915 83.8302C331.123 84.9832 331.226 86.3047 331.226 87.7946V89.9129H326.426V87.4642C326.426 86.4278 326.368 85.5662 326.251 84.8796C326.148 84.1929 325.947 83.6812 325.649 83.3443C325.351 82.9945 324.917 82.8196 324.347 82.8196C323.803 82.8196 323.362 82.9427 323.025 83.1889C322.688 83.4221 322.442 83.7913 322.287 84.2966C322.144 84.7889 322.073 85.4302 322.073 86.2205C322.073 86.9331 322.164 87.5485 322.345 88.0667C322.526 88.5849 322.805 89.0837 323.181 89.5631C323.556 90.0424 324.023 90.5801 324.58 91.1761L327.398 94.2271C328.745 95.6782 329.795 97.1875 330.546 98.7552C331.297 100.323 331.673 102.072 331.673 104.002C331.673 106.049 331.453 107.772 331.012 109.172C330.572 110.558 329.833 111.607 328.797 112.32C327.76 113.032 326.348 113.389 324.56 113.389Z" fill="black"/>
<path d="M187.174 31.1309C196.699 31.1309 204.421 38.9072 204.421 48.5C204.421 58.0929 196.699 65.8701 187.174 65.8701C186.661 65.8701 186.154 65.8449 185.652 65.8008C194.464 65.0248 201.377 57.5764 201.377 48.5C201.377 39.4237 194.464 31.9742 185.652 31.1982C186.154 31.1541 186.661 31.1309 187.174 31.1309Z" fill="black"/>
<path d="M235.174 22.4355C246.785 22.4358 256.197 31.8671 256.197 43.501C256.197 55.1347 246.785 64.5662 235.174 64.5664C234.549 64.5664 233.93 64.536 233.318 64.4824C244.061 63.5413 252.487 54.5085 252.487 43.501C252.487 32.4933 244.061 23.4586 233.318 22.5176C233.93 22.464 234.549 22.4355 235.174 22.4355Z" fill="black"/>
<path d="M296.239 9.52148C311.162 9.52148 323.259 21.6003 323.259 36.5C323.259 51.3996 311.162 63.4775 296.239 63.4775C295.436 63.4775 294.641 63.4397 293.855 63.3711C307.661 62.1658 318.491 50.5973 318.491 36.5C318.491 22.4025 307.661 10.8321 293.855 9.62695C294.641 9.55838 295.436 9.52149 296.239 9.52148Z" fill="black"/>
<path fill-rule="evenodd" clip-rule="evenodd" d="M295.444 0C315.633 0 332 16.3416 332 36.5C332 56.4451 315.978 72.6494 296.084 72.9902L296.092 72.9941L296.005 72.9922C295.818 72.995 295.631 73 295.444 73C294.919 73 294.395 72.9848 293.875 72.9629L191.096 71.5732C189.791 71.8257 188.448 71.9704 187.075 71.9941L187.08 71.9961L187.024 71.9951C186.906 71.9969 186.786 72 186.667 72C186.331 72 185.997 71.9897 185.665 71.9756L0 69.4453L179.843 26.0215C180.739 25.7458 181.658 25.5227 182.597 25.3564L182.608 25.3545L182.606 25.3555C183.925 25.1225 185.282 25 186.667 25C186.755 25 186.843 25.0019 186.931 25.0029L284.754 1.58691C286.158 1.15877 287.598 0.811961 289.068 0.553711L289.087 0.549805L289.084 0.551758C291.15 0.18988 293.275 7.11973e-06 295.444 0ZM186.701 29.0996C175.987 29.0996 167.301 37.7857 167.301 48.5C167.301 59.2141 175.987 67.8994 186.701 67.8994C197.415 67.8992 206.1 59.214 206.101 48.5C206.101 37.7858 197.415 29.0998 186.701 29.0996ZM234.53 20C221.535 20 211 30.535 211 43.5303C211 56.5254 221.535 67.0596 234.53 67.0596C247.525 67.0594 258.059 56.5253 258.06 43.5303C258.06 30.5351 247.525 20.0001 234.53 20ZM295.551 6.30078C278.844 6.30078 265.301 19.8442 265.301 36.5508C265.301 53.2574 278.844 66.8008 295.551 66.8008C312.257 66.8008 325.801 53.2574 325.801 36.5508C325.801 19.8442 312.257 6.30078 295.551 6.30078ZM34.377 65.334L163.417 46.5176C163.66 43.5873 164.436 40.8099 165.648 38.2842L34.377 65.334ZM202.028 30.8125C203.963 32.5179 205.615 34.5394 206.905 36.7979C207.556 34.0894 208.592 31.5317 209.954 29.1865L202.028 30.8125ZM251.55 20.6436C254.814 23.0837 257.536 26.2097 259.507 29.8076C260.284 25.6155 261.776 21.6746 263.857 18.1172L251.55 20.6436Z" fill="black"/>
</svg>
